<svg xmlns="http://www.w3.org/2000/svg" viewBox="0 0 200 200" fill="none">
  <!-- Global Token (GbT) Logo
       Reconstructed from reference image analysis.
       Center: (100,100). Outer ring: r=93, stroke=14.
  -->
  
  <!-- OUTER RING -->
  <circle cx="100" cy="100" r="93" stroke="currentColor" stroke-width="14" fill="none"/>
  
  <!-- SEGMENTED DECORATIVE RING — 4 groups in the gap between letters -->
  <g fill="currentColor">
    <!-- UR: Upper-right group (10°-50°) -->
    <path d="M100,100 L148,60 A79,79 0 0,1 164,82 L135,74 A62,62 0 0,0 124,58 Z"/>
    
    <!-- LR: Lower-right group (120°-165°) -->
    <path d="M100,100 L165,130 A79,79 0 0,1 150,158 L122,131 A62,62 0 0,0 132,115 Z"/>
    <path d="M100,100 L150,158 A79,79 0 0,1 120,166 L104,136 A62,62 0 0,0 122,131 Z"/>
    
    <!-- BL: Bottom-left group (200°-225°) -->
    <path d="M100,100 L75,162 A79,79 0 0,1 52,152 L62,129 A62,62 0 0,0 80,135 Z"/>
    
    <!-- UL: Upper-left group (310°-350°) -->
    <path d="M100,100 L40,68 A79,79 0 0,1 54,42 L70,56 A62,62 0 0,0 56,70 Z"/>
    <path d="M100,100 L54,42 A79,79 0 0,1 80,30 L74,50 A62,62 0 0,0 64,43 Z"/>
  </g>
  
  <!-- GbT MONOGRAM -->
  <g fill="currentColor">
    <!-- G: Left side, large C-shape with enclosed counter, ~140°-240° -->
    <path d="M100,36 C80,36 62,44 48,58 C34,74 30,94 32,112 C34,130 42,148 56,162
             C68,174 84,178 100,178 L100,162 C88,162 76,156 68,146 C58,133 52,118 52,106
             C52,92 56,78 66,68 C76,58 88,54 100,54 L100,88 L86,88 L86,108 L134,108
             L134,68 C128,54 114,42 102,36 C100,36 100,36 100,36 Z"/>
    
    <!-- b: Right side, stem + enclosed bowl at top, ~50°-120° -->
    <path d="M136,50 L136,168 L152,168 L152,120 C158,130 168,136 178,136
             C190,136 198,126 198,112 C198,98 190,88 178,86 C170,84 162,88 156,96
             L156,76 C154,64 146,54 136,50 Z
             M158,106 C158,98 162,94 170,94 C178,94 182,100 182,110 C182,118 178,124
             170,124 C164,124 158,118 158,106 Z"/>
    
    <!-- T: Bottom, horizontal bar + vertical stem, ~240°-310° -->
    <path d="M66,164 L166,164 L166,176 L130,176 L130,206 L112,206 L112,176 L66,176 Z"/>
  </g>
</svg>
